<svg width="20" height="21" viewBox="0 0 20 21" fill="none" xmlns="http://www.w3.org/2000/svg">
<path d="M19.8469 10.5C19.8469 15.8516 15.4719 20.1875 10.1594 20.1875C4.80781 20.1875 0.471875 15.8516 0.471875 10.5C0.471875 5.1875 4.80781 0.8125 10.1594 0.8125C15.4719 0.8125 19.8469 5.1875 19.8469 10.5ZM9.02656 15.6562L16.2141 8.46875C16.4484 8.23438 16.4484 7.80469 16.2141 7.57031L15.3156 6.71094C15.0813 6.4375 14.6906 6.4375 14.4563 6.71094L8.59688 12.5703L5.82344 9.83594C5.58906 9.5625 5.19844 9.5625 4.96406 9.83594L4.06563 10.6953C3.83125 10.9297 3.83125 11.3594 4.06563 11.5938L8.12813 15.6562C8.3625 15.8906 8.79219 15.8906 9.02656 15.6562Z" fill="url(#paint0_linear_7314_2736)"/>
<path d="M19.8469 10.5C19.8469 15.8516 15.4719 20.1875 10.1594 20.1875C4.80781 20.1875 0.471875 15.8516 0.471875 10.5C0.471875 5.1875 4.80781 0.8125 10.1594 0.8125C15.4719 0.8125 19.8469 5.1875 19.8469 10.5ZM9.02656 15.6562L16.2141 8.46875C16.4484 8.23438 16.4484 7.80469 16.2141 7.57031L15.3156 6.71094C15.0813 6.4375 14.6906 6.4375 14.4563 6.71094L8.59688 12.5703L5.82344 9.83594C5.58906 9.5625 5.19844 9.5625 4.96406 9.83594L4.06563 10.6953C3.83125 10.9297 3.83125 11.3594 4.06563 11.5938L8.12813 15.6562C8.3625 15.8906 8.79219 15.8906 9.02656 15.6562Z" fill="url(#paint1_linear_7314_2736)"/>
<defs>
<linearGradient id="paint0_linear_7314_2736" x1="10.1594" y1="0" x2="10.1594" y2="20" gradientUnits="userSpaceOnUse">
<stop stop-color="#56CCF2"/>
<stop offset="1" stop-color="#2F80ED"/>
</linearGradient>
<linearGradient id="paint1_linear_7314_2736" x1="8.98017e-08" y1="1.53846" x2="19.2408" y2="20.304" gradientUnits="userSpaceOnUse">
<stop stop-color="#00B9FF"/>
<stop offset="0.82" stop-color="#6F69F2"/>
</linearGradient>
</defs>
</svg>
