<svg width="22" height="22" viewBox="0 0 22 22" fill="none" xmlns="http://www.w3.org/2000/svg">
<g filter="url(#filter0_d_7314_5477)">
<path d="M19.8469 9.79004C19.8469 15.1416 15.4719 19.4775 10.1594 19.4775C4.80781 19.4775 0.471875 15.1416 0.471875 9.79004C0.471875 4.47754 4.80781 0.102539 10.1594 0.102539C15.4719 0.102539 19.8469 4.47754 19.8469 9.79004ZM9.02656 14.9463L16.2141 7.75879C16.4484 7.52441 16.4484 7.09473 16.2141 6.86035L15.3156 6.00098C15.0813 5.72754 14.6906 5.72754 14.4563 6.00098L8.59688 11.8604L5.82344 9.12598C5.58906 8.85254 5.19844 8.85254 4.96406 9.12598L4.06563 9.98535C3.83125 10.2197 3.83125 10.6494 4.06563 10.8838L8.12813 14.9463C8.3625 15.1807 8.79219 15.1807 9.02656 14.9463Z" fill="#010101"/>
</g>
<defs>
<filter id="filter0_d_7314_5477" x="0.472656" y="0.102539" width="21.375" height="21.375" filterUnits="userSpaceOnUse" color-interpolation-filters="sRGB">
<feFlood flood-opacity="0" result="BackgroundImageFix"/>
<feColorMatrix in="SourceAlpha" type="matrix" values="0 0 0 0 0 0 0 0 0 0 0 0 0 0 0 0 0 0 127 0" result="hardAlpha"/>
<feOffset dx="1" dy="1"/>
<feGaussianBlur stdDeviation="0.5"/>
<feComposite in2="hardAlpha" operator="out"/>
<feColorMatrix type="matrix" values="0 0 0 0 0 0 0 0 0 0 0 0 0 0 0 0 0 0 0.2 0"/>
<feBlend mode="normal" in2="BackgroundImageFix" result="effect1_dropShadow_7314_5477"/>
<feBlend mode="normal" in="SourceGraphic" in2="effect1_dropShadow_7314_5477" result="shape"/>
</filter>
</defs>
</svg>
