<svg width="22" height="23" viewBox="0 0 22 23" fill="none" xmlns="http://www.w3.org/2000/svg">
<g filter="url(#filter0_d_7332_7220)">
<path d="M19.8469 10.3701C19.8469 15.7217 15.4719 20.0576 10.1594 20.0576C4.80781 20.0576 0.471875 15.7217 0.471875 10.3701C0.471875 5.05762 4.80781 0.682617 10.1594 0.682617C15.4719 0.682617 19.8469 5.05762 19.8469 10.3701ZM9.02656 15.5264L16.2141 8.33887C16.4484 8.10449 16.4484 7.6748 16.2141 7.44043L15.3156 6.58105C15.0813 6.30762 14.6906 6.30762 14.4563 6.58105L8.59688 12.4404L5.82344 9.70605C5.58906 9.43262 5.19844 9.43262 4.96406 9.70605L4.06563 10.5654C3.83125 10.7998 3.83125 11.2295 4.06563 11.4639L8.12813 15.5264C8.3625 15.7607 8.79219 15.7607 9.02656 15.5264Z" fill="#010101"/>
<path d="M19.8469 10.3701C19.8469 15.7217 15.4719 20.0576 10.1594 20.0576C4.80781 20.0576 0.471875 15.7217 0.471875 10.3701C0.471875 5.05762 4.80781 0.682617 10.1594 0.682617C15.4719 0.682617 19.8469 5.05762 19.8469 10.3701ZM9.02656 15.5264L16.2141 8.33887C16.4484 8.10449 16.4484 7.6748 16.2141 7.44043L15.3156 6.58105C15.0813 6.30762 14.6906 6.30762 14.4563 6.58105L8.59688 12.4404L5.82344 9.70605C5.58906 9.43262 5.19844 9.43262 4.96406 9.70605L4.06563 10.5654C3.83125 10.7998 3.83125 11.2295 4.06563 11.4639L8.12813 15.5264C8.3625 15.7607 8.79219 15.7607 9.02656 15.5264Z" fill="url(#paint0_linear_7332_7220)"/>
</g>
<defs>
<filter id="filter0_d_7332_7220" x="0.46875" y="0.682617" width="21.375" height="21.375" filterUnits="userSpaceOnUse" color-interpolation-filters="sRGB">
<feFlood flood-opacity="0" result="BackgroundImageFix"/>
<feColorMatrix in="SourceAlpha" type="matrix" values="0 0 0 0 0 0 0 0 0 0 0 0 0 0 0 0 0 0 127 0" result="hardAlpha"/>
<feOffset dx="1" dy="1"/>
<feGaussianBlur stdDeviation="0.5"/>
<feComposite in2="hardAlpha" operator="out"/>
<feColorMatrix type="matrix" values="0 0 0 0 0 0 0 0 0 0 0 0 0 0 0 0 0 0 0.2 0"/>
<feBlend mode="normal" in2="BackgroundImageFix" result="effect1_dropShadow_7332_7220"/>
<feBlend mode="normal" in="SourceGraphic" in2="effect1_dropShadow_7332_7220" result="shape"/>
</filter>
<linearGradient id="paint0_linear_7332_7220" x1="10.1594" y1="-7.83822" x2="-0.950256" y2="18.1204" gradientUnits="userSpaceOnUse">
<stop stop-color="#39CFD9"/>
<stop offset="1" stop-color="#EFC525"/>
</linearGradient>
</defs>
</svg>
