<svg width="20" height="4" viewBox="0 0 20 4" fill="none" xmlns="http://www.w3.org/2000/svg">
<path d="M18.4211 3.1579H11.5789H8.42105H1.57895C1.16018 3.1579 0.758573 2.99154 0.462463 2.69543C0.166353 2.39932 0 1.99771 0 1.57895C0 1.16018 0.166353 0.758573 0.462463 0.462462C0.758573 0.166352 1.16018 0 1.57895 0H8.42105H11.5789H18.4211C18.8398 0 19.2414 0.166352 19.5375 0.462462C19.8336 0.758573 20 1.16018 20 1.57895C20 1.99771 19.8336 2.39932 19.5375 2.69543C19.2414 2.99154 18.8398 3.1579 18.4211 3.1579Z" fill="url(#paint0_linear_4283_4283)"/>
<defs>
<linearGradient id="paint0_linear_4283_4283" x1="-3" y1="-2.5" x2="2.86878" y2="10.1473" gradientUnits="userSpaceOnUse">
<stop stop-color="#4CC973"/>
</linearGradient>
</defs>
</svg>
