<svg width="60" height="42" viewBox="0 0 60 42" fill="none" xmlns="http://www.w3.org/2000/svg">
<g filter="url(#filter0_d_7314_4362)">
<path d="M28.1711 14.5782H29.7801H31.3289H38.1711C38.5898 14.5782 38.9914 14.4118 39.2875 14.1157C39.5836 13.8196 39.75 13.418 39.75 12.9992C39.75 12.5805 39.5836 12.1789 39.2875 11.8827C38.9914 11.5866 38.5898 11.4203 38.1711 11.4203H31.3289L29.8716 11.4199L28.1711 11.4203L21.3289 11.4203C20.9102 11.4203 20.5086 11.5866 20.2125 11.8827C19.9164 12.1789 19.75 12.5805 19.75 12.9992C19.75 13.418 19.9164 13.8196 20.2125 14.1157C20.5086 14.4118 20.9102 14.5782 21.3289 14.5782H28.1711Z" fill="#010101"/>
</g>
<defs>
<filter id="filter0_d_7314_4362" x="0.450001" y="0.119923" width="58.6" height="41.7582" filterUnits="userSpaceOnUse" color-interpolation-filters="sRGB">
<feFlood flood-opacity="0" result="BackgroundImageFix"/>
<feColorMatrix in="SourceAlpha" type="matrix" values="0 0 0 0 0 0 0 0 0 0 0 0 0 0 0 0 0 0 127 0" result="hardAlpha"/>
<feOffset dy="8"/>
<feGaussianBlur stdDeviation="9.65"/>
<feComposite in2="hardAlpha" operator="out"/>
<feColorMatrix type="matrix" values="0 0 0 0 0.239216 0 0 0 0 0.631373 0 0 0 0 0.360784 0 0 0 1 0"/>
<feBlend mode="normal" in2="BackgroundImageFix" result="effect1_dropShadow_7314_4362"/>
<feBlend mode="normal" in="SourceGraphic" in2="effect1_dropShadow_7314_4362" result="shape"/>
</filter>
</defs>
</svg>
