<svg width="59" height="59" viewBox="0 0 59 59" fill="none" xmlns="http://www.w3.org/2000/svg">
<g filter="url(#filter0_d_7314_5663)">
<path d="M27.9211 30.4211C27.9211 30.8398 28.0874 31.2414 28.3835 31.5375C28.6796 31.8336 29.0812 32 29.5 32C29.9188 32 30.3204 31.8336 30.6165 31.5375C30.9126 31.2414 31.0789 30.8398 31.0789 30.4211V23.5789H37.9211C38.3398 23.5789 38.7414 23.4126 39.0375 23.1165C39.3336 22.8204 39.5 22.4188 39.5 22C39.5 21.5812 39.3336 21.1796 39.0375 20.8835C38.7414 20.5874 38.3398 20.4211 37.9211 20.4211H31.0789V13.5789C31.0789 13.1602 30.9126 12.7586 30.6165 12.4625C30.3204 12.1664 29.9188 12 29.5 12C29.0812 12 28.6796 12.1664 28.3835 12.4625C28.0874 12.7586 27.9211 13.1602 27.9211 13.5789V20.4211H21.0789C20.6602 20.4211 20.2586 20.5874 19.9625 20.8835C19.6664 21.1796 19.5 21.5812 19.5 22C19.5 22.4188 19.6664 22.8204 19.9625 23.1165C20.2586 23.4126 20.6602 23.5789 21.0789 23.5789H27.9211V30.4211Z" fill="#010101"/>
</g>
<defs>
<filter id="filter0_d_7314_5663" x="0.200001" y="0.700001" width="58.6" height="58.6" filterUnits="userSpaceOnUse" color-interpolation-filters="sRGB">
<feFlood flood-opacity="0" result="BackgroundImageFix"/>
<feColorMatrix in="SourceAlpha" type="matrix" values="0 0 0 0 0 0 0 0 0 0 0 0 0 0 0 0 0 0 127 0" result="hardAlpha"/>
<feOffset dy="8"/>
<feGaussianBlur stdDeviation="9.65"/>
<feComposite in2="hardAlpha" operator="out"/>
<feColorMatrix type="matrix" values="0 0 0 0 0.72093 0 0 0 0 1 0 0 0 0 0 0 0 0 1 0"/>
<feBlend mode="normal" in2="BackgroundImageFix" result="effect1_dropShadow_7314_5663"/>
<feBlend mode="normal" in="SourceGraphic" in2="effect1_dropShadow_7314_5663" result="shape"/>
</filter>
</defs>
</svg>
