<svg width="21" height="20" viewBox="0 0 21 20" fill="none" xmlns="http://www.w3.org/2000/svg">
<path d="M8.92105 18.4211C8.92105 18.8398 9.08741 19.2414 9.38352 19.5375C9.67963 19.8336 10.0812 20 10.5 20C10.9188 20 11.3204 19.8336 11.6165 19.5375C11.9126 19.2414 12.0789 18.8398 12.0789 18.4211V11.5789H18.9211C19.3398 11.5789 19.7414 11.4126 20.0375 11.1165C20.3336 10.8204 20.5 10.4188 20.5 10C20.5 9.58124 20.3336 9.17963 20.0375 8.88352C19.7414 8.58741 19.3398 8.42105 18.9211 8.42105H12.0789V1.57895C12.0789 1.16018 11.9126 0.758573 11.6165 0.462463C11.3204 0.166353 10.9188 0 10.5 0C10.0812 0 9.67963 0.166353 9.38352 0.462463C9.08741 0.758573 8.92105 1.16018 8.92105 1.57895V8.42105H2.07895C1.66018 8.42105 1.25857 8.58741 0.962463 8.88352C0.666353 9.17963 0.5 9.58124 0.5 10C0.5 10.4188 0.666353 10.8204 0.962463 11.1165C1.25857 11.4126 1.66018 11.5789 2.07895 11.5789H8.92105V18.4211Z" fill="#4CC973"/>
</svg>
