<svg width="79" height="76" viewBox="0 0 79 76" fill="none" xmlns="http://www.w3.org/2000/svg">
<g filter="url(#filter0_b_7314_2612)">
<rect width="78.5101" height="75.6513" rx="37.8257" fill="white" fill-opacity="0.09"/>
<rect x="1" y="1" width="76.5101" height="73.6513" rx="36.8257" stroke="white" stroke-width="2"/>
<g clip-path="url(#clip0_7314_2612)">
<mask id="mask0_7314_2612" style="mask-type:luminance" maskUnits="userSpaceOnUse" x="25" y="24" width="28" height="28">
<path d="M25.4453 24.4445H52.7046V51.7037H25.4453V24.4445Z" fill="white"/>
</mask>
<g mask="url(#mask0_7314_2612)">
<path fill-rule="evenodd" clip-rule="evenodd" d="M50.5837 41.7609C53.4204 40.1219 53.4204 36.0262 50.5837 34.3855L36.0937 26.0084C33.2553 24.3678 29.7031 26.4173 29.7031 29.697V46.4512C29.7031 49.7308 33.2553 51.7804 36.0937 50.138L50.5837 41.7609Z" fill="url(#paint0_linear_7314_2612)"/>
<path fill-rule="evenodd" clip-rule="evenodd" d="M50.5837 41.7609C53.4204 40.1219 53.4204 36.0262 50.5837 34.3855L36.0937 26.0084C33.2553 24.3678 29.7031 26.4173 29.7031 29.697V46.4512C29.7031 49.7308 33.2553 51.7804 36.0937 50.138L50.5837 41.7609Z" fill="url(#paint1_linear_7314_2612)"/>
</g>
</g>
</g>
<defs>
<filter id="filter0_b_7314_2612" x="-32" y="-32" width="142.512" height="139.651" filterUnits="userSpaceOnUse" color-interpolation-filters="sRGB">
<feFlood flood-opacity="0" result="BackgroundImageFix"/>
<feGaussianBlur in="BackgroundImageFix" stdDeviation="16"/>
<feComposite in2="SourceAlpha" operator="in" result="effect1_backgroundBlur_7314_2612"/>
<feBlend mode="normal" in="SourceGraphic" in2="effect1_backgroundBlur_7314_2612" result="shape"/>
</filter>
<linearGradient id="paint0_linear_7314_2612" x1="41.2072" y1="25.4308" x2="41.2072" y2="50.7166" gradientUnits="userSpaceOnUse">
<stop stop-color="#56CCF2"/>
<stop offset="1" stop-color="#2F80ED"/>
</linearGradient>
<linearGradient id="paint1_linear_7314_2612" x1="29.7031" y1="27.3758" x2="53.8159" y2="48.4389" gradientUnits="userSpaceOnUse">
<stop stop-color="#00B9FF"/>
<stop offset="0.82" stop-color="#6F69F2"/>
</linearGradient>
<clipPath id="clip0_7314_2612">
<rect width="27.2593" height="27.2593" fill="white" transform="translate(25.4453 24.4445)"/>
</clipPath>
</defs>
</svg>
