<svg width="33" height="32" viewBox="0 0 33 32" fill="none" xmlns="http://www.w3.org/2000/svg">
<path d="M27.332 15.75C27.332 21.6367 22.5195 26.4062 16.6758 26.4062C10.7891 26.4062 6.01953 21.6367 6.01953 15.75C6.01953 9.90625 10.7891 5.09375 16.6758 5.09375C22.5195 5.09375 27.332 9.90625 27.332 15.75ZM15.4297 21.4219L23.3359 13.5156C23.5938 13.2578 23.5938 12.7852 23.3359 12.5273L22.3477 11.582C22.0898 11.2812 21.6602 11.2812 21.4023 11.582L14.957 18.0273L11.9062 15.0195C11.6484 14.7188 11.2188 14.7188 10.9609 15.0195L9.97266 15.9648C9.71484 16.2227 9.71484 16.6953 9.97266 16.9531L14.4414 21.4219C14.6992 21.6797 15.1719 21.6797 15.4297 21.4219Z" fill="white"/>
</svg>
