<svg width="22" height="22" viewBox="0 0 22 22" fill="none" xmlns="http://www.w3.org/2000/svg">
<path d="M21.8359 10.75C21.8359 16.6367 17.0234 21.4062 11.1797 21.4062C5.29297 21.4062 0.523438 16.6367 0.523438 10.75C0.523438 4.90625 5.29297 0.09375 11.1797 0.09375C17.0234 0.09375 21.8359 4.90625 21.8359 10.75ZM9.93359 16.4219L17.8398 8.51562C18.0977 8.25781 18.0977 7.78516 17.8398 7.52734L16.8516 6.58203C16.5938 6.28125 16.1641 6.28125 15.9062 6.58203L9.46094 13.0273L6.41016 10.0195C6.15234 9.71875 5.72266 9.71875 5.46484 10.0195L4.47656 10.9648C4.21875 11.2227 4.21875 11.6953 4.47656 11.9531L8.94531 16.4219C9.20312 16.6797 9.67578 16.6797 9.93359 16.4219Z" fill="#FAFAFA"/>
</svg>
