<svg width="17" height="13" viewBox="0 0 17 13" fill="none" xmlns="http://www.w3.org/2000/svg">
<path d="M8.46094 5.96362L13.7734 0.651123C14.1641 0.299561 14.75 0.299561 15.1016 0.651123L16 1.54956C16.3516 1.90112 16.3516 2.52612 16 2.87769L12.2109 6.62769L16 10.4167C16.3516 10.7683 16.3516 11.3542 16 11.7449L15.1016 12.6042C14.75 12.9949 14.1641 12.9949 13.7734 12.6042L8.46094 7.29175C8.10938 6.94019 8.10938 6.35425 8.46094 5.96362ZM0.960938 7.29175C0.609375 6.94019 0.609375 6.35425 0.960938 5.96362L6.27344 0.651123C6.66406 0.299561 7.25 0.299561 7.60156 0.651123L8.5 1.54956C8.85156 1.90112 8.85156 2.52612 8.5 2.87769L4.71094 6.62769L8.5 10.4167C8.85156 10.7683 8.85156 11.3542 8.5 11.7449L7.60156 12.6042C7.25 12.9949 6.66406 12.9949 6.27344 12.6042L0.960938 7.29175Z" fill="#010101"/>
</svg>
